<svg xmlns="http://www.w3.org/2000/svg" viewBox="0 0 720 300" role="img" aria-labelledby="title desc">
  <title id="title">AAVADINGI logo</title>
  <desc id="desc">A stylized AAVADINGI wordmark with the tagline Try for a Measure of Mercy and colorful performance icons.</desc>
  <rect width="720" height="300" fill="#ffffff"/>
  <g transform="translate(52 34)">
    <text x="40" y="136" font-family="Arial Black, Impact, sans-serif" font-size="34" fill="#111111" transform="rotate(-90 40 136)">A GREAT</text>
    <text x="88" y="82" font-family="Arial, Helvetica, sans-serif" font-size="42" font-weight="700" fill="#222222">TRY FOR A MEASURE OF MERCY</text>
    <text x="78" y="152" font-family="Arial Black, Impact, sans-serif" font-size="128" font-weight="900" letter-spacing="-4" fill="#111111">AAVADINGI</text>

    <polygon points="256,90 278,90 270,174 264,174" fill="#b33b3b"/>
    <circle cx="268" cy="180" r="7" fill="#b33b3b"/>

    <g fill="#2f318f">
      <rect x="56" y="150" width="12" height="64" rx="6"/>
      <polygon points="62,90 78,150 46,150"/>
      <ellipse cx="62" cy="222" rx="16" ry="12"/>
    </g>

    <g fill="#a43ba5">
      <circle cx="382" cy="168" r="17"/>
      <circle cx="414" cy="168" r="17"/>
      <path d="M371 156h56l-10 26h-38z"/>
      <rect x="389" y="126" width="10" height="39" rx="4"/>
      <circle cx="394" cy="117" r="10"/>
      <path d="M390 121l20 11-14 7z"/>
    </g>

    <g fill="#2f9547">
      <rect x="470" y="92" width="15" height="108" rx="7"/>
      <path d="M471 198c26 8 30 34 11 45-12 7-23 0-25-9 8 0 12-5 12-12-9-4-12-14-9-24z"/>
    </g>

    <g fill="#c9c119">
      <path d="M572 132c21 0 38 6 49 17v60c-10 13-28 22-49 22s-39-9-49-22v-60c10-11 28-17 49-17z"/>
      <path d="M548 172c12 14 26 21 43 21s31-7 43-21" fill="none" stroke="#ffffff" stroke-width="8" stroke-linecap="round"/>
      <path d="M556 158c8 0 15 6 15 13 0 8-7 14-15 14s-15-6-15-14c0-7 7-13 15-13z" fill="#ffffff"/>
      <path d="M589 158c8 0 15 6 15 13 0 8-7 14-15 14s-15-6-15-14c0-7 7-13 15-13z" fill="#ffffff"/>
    </g>
  </g>
</svg>
