<svg xmlns="http://www.w3.org/2000/svg" viewBox="0 0 1200 600">
  <defs>
    <linearGradient id="bg" x1="0" y1="0" x2="1" y2="1">
      <stop offset="0%" stop-color="#eef2f7"/>
      <stop offset="50%" stop-color="#cbd4de"/>
      <stop offset="100%" stop-color="#f8fbff"/>
    </linearGradient>
    <linearGradient id="metal" x1="0" y1="0" x2="1" y2="1">
      <stop offset="0%" stop-color="#ffffff"/>
      <stop offset="50%" stop-color="#b3bcc7"/>
      <stop offset="100%" stop-color="#ffffff"/>
    </linearGradient>
    <filter id="glow">
      <feDropShadow dx="0" dy="0" stdDeviation="10" flood-color="#ffffff" flood-opacity="0.8"/>
    </filter>
  </defs>
  <rect width="1200" height="600" rx="40" fill="url(#bg)"/>
  <g opacity="0.18" stroke="#97a4b3" fill="none">
    <path d="M80 50c40 0 60 20 60 60-20-20-40-30-60-30s-40 10-60 30c0-40 20-60 60-60z"/>
    <path d="M1040 70c32 0 48 16 48 48-16-16-32-24-48-24s-32 8-48 24c0-32 16-48 48-48z"/>
    <path d="M1110 510c32 0 48 16 48 48-16-16-32-24-48-24s-32 8-48 24c0-32 16-48 48-48z"/>
  </g>
  <rect x="40" y="40" width="1120" height="520" rx="34" fill="rgba(255,255,255,0.45)" stroke="url(#metal)" stroke-width="8"/>
  <rect x="60" y="60" width="1080" height="480" rx="28" fill="none" stroke="#ffffff" stroke-opacity="0.7" stroke-width="3"/>
  <g fill="#ffffff" opacity="0.8">
    <circle cx="130" cy="150" r="6"/><circle cx="1060" cy="180" r="7"/><circle cx="930" cy="420" r="5"/><circle cx="250" cy="470" r="5"/>
  </g>
  <g fill="#7d8794" font-family="Playfair Display, Georgia, serif" text-anchor="middle">
    <text x="600" y="165" font-size="64" filter="url(#glow)">AAVAADINGI</text>
    <text x="600" y="330" font-size="126" font-weight="700" filter="url(#glow)">SILVER PASS</text>
    <text x="600" y="430" font-size="86" font-family="Poppins, Arial, sans-serif" font-weight="800">₹1200</text>
    <text x="600" y="510" font-size="42" font-family="Poppins, Arial, sans-serif">Date: 23 &amp; 24 May 2026   Location: Chennai</text>
  </g>
</svg>
